<svg version="1.1" id="Layer_1" xmlns="http://www.w3.org/2000/svg" xmlns:xlink="http://www.w3.org/1999/xlink" x="0px" y="0px"
	 width="100%" viewBox="0 0 788 788" enable-background="new 0 0 788 788" xml:space="preserve">
<defs>
	<clipPath id="rounded-icon-clip">
		<rect x="0" y="0" width="788" height="788" rx="132" ry="132"/>
	</clipPath>
</defs>
<g clip-path="url(#rounded-icon-clip)">
<path fill="#FEFDFE" opacity="1.000000" stroke="none" 
	d="
M517.000000,789.000000 
	C344.666656,789.000000 172.833328,789.000000 1.000000,789.000000 
	C1.000000,526.333313 1.000000,263.666656 1.000000,1.000000 
	C263.666656,1.000000 526.333313,1.000000 789.000000,1.000000 
	C789.000000,263.666656 789.000000,526.333313 789.000000,789.000000 
	C698.500000,789.000000 608.000000,789.000000 517.000000,789.000000 
M421.079681,542.164490 
	C420.595276,541.544067 420.195984,540.826416 419.614227,540.317261 
	C400.306610,523.417664 381.121399,506.374176 361.605225,489.718506 
	C350.358917,480.120605 337.181427,475.099304 322.165161,475.130951 
	C282.171051,475.215179 242.176666,475.159363 202.182388,475.144287 
	C200.454834,475.143646 198.727341,474.994568 196.459763,474.889618 
	C200.928970,468.262909 205.278732,462.397766 209.024048,456.169220 
	C245.220688,395.972931 281.379211,335.753448 317.416626,275.461731 
	C339.863739,237.906982 362.153076,200.257217 384.323761,162.538696 
	C387.304657,157.467316 391.290680,154.899368 396.835175,153.766846 
	C422.684296,148.486786 447.895172,151.888657 472.685120,159.559296 
	C483.223053,162.820023 493.441193,167.114502 504.305389,171.123962 
	C503.873718,170.137939 503.672607,169.565201 503.385651,169.039307 
	C490.700714,145.793243 478.670563,122.157387 465.143951,99.411514 
	C449.285217,72.744034 425.618408,58.061073 393.875336,60.164131 
	C366.440674,61.981750 346.502380,77.047585 332.675140,99.953079 
	C286.814880,175.923111 241.340042,252.125763 195.700546,328.229095 
	C153.679443,398.298828 111.632172,468.352844 69.637573,538.438477 
	C68.850883,539.751343 68.575920,541.370850 68.189476,543.664185 
	C70.154686,544.111450 72.119606,544.948364 74.085152,544.949829 
	C161.662064,545.014954 249.239029,545.006653 336.815979,545.006897 
	C363.122375,545.007019 389.428955,545.047363 415.734680,544.914001 
	C417.473663,544.905151 419.205994,543.570496 421.079681,542.164490 
M544.500061,618.787292 
	C487.845398,618.797485 431.190338,618.704285 374.536621,618.941162 
	C366.958649,618.972778 359.116669,619.715271 351.860413,621.767334 
	C320.803101,630.550781 300.859772,651.853516 287.945526,680.528503 
	C285.404114,686.171509 283.466553,692.086548 281.041718,698.421509 
	C283.183411,698.421509 284.329010,698.421448 285.474640,698.421509 
	C386.787201,698.425720 488.099792,698.495117 589.412231,698.394470 
	C619.944702,698.364197 646.343445,687.472839 668.600098,666.654846 
	C711.714722,626.327209 716.516907,557.921448 679.734131,511.782074 
	C664.887817,493.159241 650.539490,474.139709 635.713501,455.500397 
	C625.983398,443.267700 616.619080,430.581787 605.640320,419.541412 
	C587.756836,401.557617 565.802490,390.301270 540.198914,388.765106 
	C519.774414,387.539673 499.234100,388.242310 478.745209,388.091370 
	C477.339539,388.081024 475.933746,388.090027 473.551239,388.090027 
	C475.452026,390.239166 476.582764,391.612732 477.811676,392.891998 
	C486.468292,401.903534 495.172607,410.869385 503.808289,419.900909 
	C513.591797,430.132874 524.130249,439.771851 532.922119,450.799408 
	C561.161011,486.219086 588.898499,522.042908 616.498840,557.964905 
	C626.023987,570.361938 628.276794,584.391602 621.154907,598.805115 
	C614.260010,612.759216 602.263489,618.777344 586.991455,618.791443 
	C573.161011,618.804199 559.330566,618.788513 544.500061,618.787292 
M385.384064,248.840927 
	C370.047668,257.547455 357.575714,269.298615 347.680939,283.894226 
	C317.137115,328.948883 320.264709,386.781952 357.574738,427.395813 
	C390.009369,462.702606 424.707123,495.955536 458.924652,529.587219 
	C473.061859,543.482361 490.538727,550.697449 510.882812,550.344238 
	C530.370422,550.005981 549.868958,550.296143 569.362671,550.309326 
	C572.606689,550.311523 575.850769,550.309631 580.196777,550.309631 
	C578.698425,548.532043 578.013672,547.682495 577.290527,546.866943 
	C525.997009,489.023376 473.633698,432.175446 419.257843,377.203735 
	C407.400757,365.216705 403.588348,349.856720 409.237183,336.105133 
	C415.118561,321.787476 427.937927,314.103668 445.657410,314.129547 
	C479.813416,314.179413 513.969482,314.148285 548.125488,314.192902 
	C567.389221,314.218048 584.846863,308.598785 600.677612,297.698669 
	C622.705750,282.531372 636.066650,261.100464 645.006714,236.470306 
	C645.252991,235.791855 645.140625,234.983246 645.201599,234.151978 
	C644.231140,234.105438 643.569641,234.045898 642.908142,234.045914 
	C575.595581,234.048538 508.282928,233.983505 440.970581,234.107635 
	C421.479553,234.143570 403.114960,239.026688 385.384064,248.840927 
M487.500000,316.001221 
	C471.104706,316.001221 454.709442,316.001221 438.314148,316.001221 
	C438.317932,316.239349 438.321716,316.477478 438.325470,316.715607 
	C477.507538,316.715607 516.689636,316.715607 555.871704,316.715607 
	C555.872070,316.477478 555.872498,316.239349 555.872864,316.001221 
	C533.415222,316.001221 510.957611,316.001221 487.500000,316.001221 
z"/>
<path fill="#090908" opacity="1.000000" stroke="none" 
	d="
M68.062180,542.847290 
	C68.575920,541.370850 68.850883,539.751343 69.637573,538.438477 
	C111.632172,468.352844 153.679443,398.298828 195.700546,328.229095 
	C241.340042,252.125763 286.814880,175.923111 332.675140,99.953079 
	C346.502380,77.047585 366.440674,61.981750 393.875336,60.164131 
	C425.618408,58.061073 449.285217,72.744034 465.143951,99.411514 
	C478.670563,122.157387 490.700714,145.793243 503.385651,169.039307 
	C503.672607,169.565201 503.873718,170.137939 504.305389,171.123962 
	C493.441193,167.114502 483.223053,162.820023 472.685120,159.559296 
	C447.895172,151.888657 422.684296,148.486786 396.835175,153.766846 
	C391.290680,154.899368 387.304657,157.467316 384.323761,162.538696 
	C362.153076,200.257217 339.863739,237.906982 317.416626,275.461731 
	C281.379211,335.753448 245.220688,395.972931 209.024048,456.169220 
	C205.278732,462.397766 200.928970,468.262909 196.459763,474.889618 
	C198.727341,474.994568 200.454834,475.143646 202.182388,475.144287 
	C242.176666,475.159363 282.171051,475.215179 322.165161,475.130951 
	C337.181427,475.099304 350.358917,480.120605 361.605225,489.718506 
	C381.121399,506.374176 400.306610,523.417664 419.614227,540.317261 
	C420.195984,540.826416 420.595276,541.544067 420.558441,542.389648 
	C419.039459,542.592468 418.041718,542.550659 417.043976,542.550720 
	C314.855591,542.554138 212.667206,542.549927 110.478828,542.579224 
	C96.339928,542.583313 82.201065,542.753845 68.062180,542.847290 
z"/>
<path fill="#080807" opacity="1.000000" stroke="none" 
	d="
M545.000122,618.786377 
	C559.330566,618.788513 573.161011,618.804199 586.991455,618.791443 
	C602.263489,618.777344 614.260010,612.759216 621.154907,598.805115 
	C628.276794,584.391602 626.023987,570.361938 616.498840,557.964905 
	C588.898499,522.042908 561.161011,486.219086 532.922119,450.799408 
	C524.130249,439.771851 513.591797,430.132874 503.808289,419.900909 
	C495.172607,410.869385 486.468292,401.903534 477.811676,392.891998 
	C476.582764,391.612732 475.452026,390.239166 473.551239,388.090027 
	C475.933746,388.090027 477.339539,388.081024 478.745209,388.091370 
	C499.234100,388.242310 519.774414,387.539673 540.198914,388.765106 
	C565.802490,390.301270 587.756836,401.557617 605.640320,419.541412 
	C616.619080,430.581787 625.983398,443.267700 635.713501,455.500397 
	C650.539490,474.139709 664.887817,493.159241 679.734131,511.782074 
	C716.516907,557.921448 711.714722,626.327209 668.600098,666.654846 
	C646.343445,687.472839 619.944702,698.364197 589.412231,698.394470 
	C488.099792,698.495117 386.787201,698.425720 285.474640,698.421509 
	C284.329010,698.421448 283.183411,698.421509 281.041718,698.421509 
	C283.466553,692.086548 285.404114,686.171509 287.945526,680.528503 
	C300.859772,651.853516 320.803101,630.550781 351.860413,621.767334 
	C359.116669,619.715271 366.958649,618.972778 374.536621,618.941162 
	C431.190338,618.704285 487.845398,618.797485 545.000122,618.786377 
z"/>
<path fill="#080808" opacity="1.000000" stroke="none" 
	d="
M385.691467,248.639008 
	C403.114960,239.026688 421.479553,234.143570 440.970581,234.107635 
	C508.282928,233.983505 575.595581,234.048538 642.908142,234.045914 
	C643.569641,234.045898 644.231140,234.105438 645.201599,234.151978 
	C645.140625,234.983246 645.252991,235.791855 645.006714,236.470306 
	C636.066650,261.100464 622.705750,282.531372 600.677612,297.698669 
	C584.846863,308.598785 567.389221,314.218048 548.125488,314.192902 
	C513.969482,314.148285 479.813416,314.179413 445.657410,314.129547 
	C427.937927,314.103668 415.118561,321.787476 409.237183,336.105133 
	C403.588348,349.856720 407.400757,365.216705 419.257843,377.203735 
	C473.633698,432.175446 525.997009,489.023376 577.290527,546.866943 
	C578.013672,547.682495 578.698425,548.532043 580.196777,550.309631 
	C575.850769,550.309631 572.606689,550.311523 569.362671,550.309326 
	C549.868958,550.296143 530.370422,550.005981 510.882812,550.344238 
	C490.538727,550.697449 473.061859,543.482361 458.924652,529.587219 
	C424.707123,495.955536 390.009369,462.702606 357.574738,427.395813 
	C320.264709,386.781952 317.137115,328.948883 347.680939,283.894226 
	C357.575714,269.298615 370.047668,257.547455 385.691467,248.639008 
z"/>
<path fill="#EFEFEF" opacity="1.000000" stroke="none" 
	d="
M68.125832,543.255737 
	C82.201065,542.753845 96.339928,542.583313 110.478828,542.579224 
	C212.667206,542.549927 314.855591,542.554138 417.043976,542.550720 
	C418.041718,542.550659 419.039459,542.592468 420.489319,542.733643 
	C419.205994,543.570496 417.473663,544.905151 415.734680,544.914001 
	C389.428955,545.047363 363.122375,545.007019 336.815979,545.006897 
	C249.239029,545.006653 161.662064,545.014954 74.085152,544.949829 
	C72.119606,544.948364 70.154686,544.111450 68.125832,543.255737 
z"/>
<path fill="#F0F0F0" opacity="1.000000" stroke="none" 
	d="
M488.000000,316.001221 
	C510.957611,316.001221 533.415222,316.001221 555.872864,316.001221 
	C555.872498,316.239349 555.872070,316.477478 555.871704,316.715607 
	C516.689636,316.715607 477.507538,316.715607 438.325470,316.715607 
	C438.321716,316.477478 438.317932,316.239349 438.314148,316.001221 
	C454.709442,316.001221 471.104706,316.001221 488.000000,316.001221 
z"/>
</g>
</svg>
